<?xml version="1.0" encoding="UTF-8"?>
<svg width="32" height="32" viewBox="0 0 32 32" fill="none" xmlns="http://www.w3.org/2000/svg">
  <!-- Background circle -->
  <circle cx="16" cy="16" r="15" fill="currentColor"/>
  
  <!-- Letters 'PD' in a modern style, centered with more space between them -->
  <path d="M8 9h6c2.2 0 4 1.8 4 4s-1.8 4-4 4h-3v6H8V9zm3 5h3c0.6 0 1-0.4 1-1s-0.4-1-1-1h-3v2z" fill="white"/>
  <path d="M18.5 9h3c2.8 0 5 2.2 5 5v4c0 2.8-2.2 5-5 5h-3V9zm3 11c1.1 0 2-0.9 2-2v-4c0-1.1-0.9-2-2-2h-0.1v8h0.1z" fill="white"/>
  
  <style>
    @media (prefers-color-scheme: dark) {
      circle { fill: white; }
      path { fill: black; }
    }
    @media (prefers-color-scheme: light) {
      circle { fill: black; }
      path { fill: white; }
    }
  </style>
</svg>