<?xml version="1.0" encoding="utf-8"?>
<!-- Generator: Adobe Illustrator 19.2.1, SVG Export Plug-In . SVG Version: 6.00 Build 0)  -->
<svg version="1.1" id="layer" xmlns="http://www.w3.org/2000/svg" xmlns:xlink="http://www.w3.org/1999/xlink" x="0px" y="0px"
	 viewBox="0 0 652 652" style="enable-background:new 0 0 652 652;" xml:space="preserve">
<style type="text/css">
	.st0{fill:#CFB991;}
	.st1{fill:#9D9795;}
</style>
<path class="st0" d="M133.2,378l13.5-31.8h22.4c32.3,0,44.5-13.2,53.2-33.2c3.1-7.5,8.4-19.7,1.4-30.3c-7-10.6-21.7-11.6-32-11.6
	H72.8L56,310.3h21.4l-12,28.2H43.7L26.8,378C26.8,378,133.2,378,133.2,378z"/>
<path class="st1" d="M217.5,286.7c-3.9-5.8-12-8.4-26-8.4H77.6l-10.3,24.8h21.4l-18.1,42.6H49l-10.6,24.8h90l10.6-24.8h-21.9l2.9-7
	h49.1c31.5,0,40-13.5,46.5-28.9C218.9,301.9,222,293.5,217.5,286.7 M135.4,303.1h36.1c5.1,0,4.3,2.4,3.6,4.1c-1.9,4.3-6.3,7-11.6,7
	h-33L135.4,303.1z"/>
<path d="M191.7,282.2H80.3l-7.2,17.1h21.4l-21.4,50.3H51.4l-7.2,17.1H126l7.2-17.1h-21.9l6.3-14.4h51.5c29.6,0,37.1-12.5,42.8-26.5
	C217.7,294.7,221.3,282.2,191.7,282.2 M163.6,318H125l7.9-18.5h38.5c6.7,0,9.6,3.6,7,9.4C176.1,314.4,170.3,318,163.6,318
	 M260.8,279.3l-6.7-1.9v-4.8h26.2c17.1,0,23.3,5.5,23.3,18.3c0,12-7,18.3-20.5,18.3h-10.6v19.3l6.7,1.9v4.8h-25.5v-4.6l7-1.9V279.3z
	 M272.6,279.3v24.3l12.5-1c3.1-1.4,6.3-3.4,6.3-11.1c0-6-0.2-12.3-11.8-12.3H272.6z M401.3,308.6h-8.4v20.2l6.7,1.9v4.3h-25.8v-4.6
	l7-1.9v-49.3l-6.7-1.9v-4.8h27.4c16.4,0,22.1,5.8,22.1,16.8c0,8.7-3.4,13-11.1,16.1l11.6,22.6l7.5,2.4v4.6h-17.3L401.3,308.6z
	 M392.9,279.3v23.8l12.8-1c4.1-1.9,6-5.3,6-11.8c0-7-2.2-11.3-9.4-11.3L392.9,279.3z M437,330.8l6.7-1.9v-49.6l-6.7-1.9v-4.8h30.3
	c17.1,0,27.2,10.3,27.2,30.6c0,22.9-10.3,32-28.4,32H437V330.8z M455.7,279.3v49.6h8.9c6.3,0,16.8-1,16.8-23.6
	c0-17.8-3.1-26-16.8-26L455.7,279.3z M280.3,367.9c0,7.7-4.3,10.3-11.6,10.3c-7.2,0-11.6-4.3-11.6-10.3v-15.2l-3.4-1v-2.9H267v2.9
	l-3.1,1v15.2c0,3.9,1.4,6,5.8,6c2.2,0,5.8-0.7,5.8-6.3v-15.2l-3.4-1v-2.9h11.6v2.9l-3.4,1L280.3,367.9z M303.4,359.9v14l3.1,1v2.9
	h-11.3v-2.9l3.4-1v-20l-1.4-1.7l-1.9-0.7v-3.1h7.5l14.2,17.8v-14l-3.4-1v-2.9h11.3v2.9l-3.4,1v25.3h-3.9L303.4,359.9z M349.1,374.1
	l3.4,1v2.9H339v-2.9l3.4-1v-21.4l-3.4-1v-2.9h13.5v2.9l-3.4,1V374.1z M529.4,374.1l3.4,1v2.9h-13.5v-2.9l3.4-1v-21.4l-3.4-1v-2.9
	h13.5v2.9l-3.4,1V374.1z M383,377.7h-6.3l-9.1-25.3l-3.4-1v-2.9h14.2v2.9l-3.4,1l6.3,18.1l6.3-18.1l-3.4-1v-2.9h11.6v2.9l-3.4,1
	L383,377.7z M409.5,352.7l-3.4-1v-2.9H429l0.2,8.9h-3.4l-1.7-5.1h-7.7v8.2h7.5v4.1h-7.5v9.1h7.7l2.4-5.1h3.6l-0.5,8.9h-23.3v-2.9
	l3.4-0.7v-21.7H409.5z M457.4,365.9H455v8.2l3.4,1v2.9h-13.5v-2.9l3.4-1v-21.4l-3.4-1v-2.9h13.2c8.2,0,10.6,3.1,10.6,8.2
	c0,3.1-0.7,6.3-4.8,7.7l4.8,9.4l4.1,1.2v2.6H463L457.4,365.9z M455,352.7v10.1l4.6-0.5c1.4-1.2,2.4-3.1,2.4-5.1
	c0-2.9-0.7-4.8-3.9-4.8H455V352.7z M484.6,368.8h4.1l1,4.1c1.9,1.2,4.1,1.7,6.3,1.7c0.2,0,0.7,0,1,0c1.2-0.7,1.7-2.2,1.9-3.6
	c0-6.7-14-3.9-14-13.7c0-4.6,4.1-8.9,11.1-8.9c2.6,0,5.5,0.7,7.9,1.9v7.7H500l-1.4-4.8c-1.4-0.5-3.1-1-4.8-1c-0.2,0-0.5,0-0.7,0
	c-1.2,0.7-1.9,1.9-1.9,3.4c0,5.8,13.7,3.9,13.7,13.5c0,5.3-4.8,9.1-11.1,9.1c-3.1,0-6.3-1-8.9-2.6L484.6,368.8z M555.9,352.7H552
	l-1.7,5.1h-3.6v-9.1h25.5v9.1h-3.6l-1.7-5.1h-4.1v21.4l3.4,1v2.9h-13.5v-2.9l3.4-1v-21.4H555.9z M594.8,366.6l-7.7-14l-3.4-1v-2.9
	H598v2.9l-3.4,1l4.8,9.4l4.8-9.4l-3.4-1v-2.9h11.6v2.9l-3.4,1l-7.7,14v7.5l3.4,1v2.9h-13.5v-2.9l3.4-1v-7.5H594.8z M607.4,317.1
	l-4.6,11.6h-19.5v-22.4h11.1l1.4,6.3h4.8v-19h-4.8l-1.4,6.3h-11.1v-20.5h18.8l3.4,12h7l-0.5-18.8h-47.4v4.8l6.7,1.9v49.6l-7,1.9v4.3
	h48.6l1-18.1H607.4z M362.1,313.7c0,15.9-7.7,22.4-23.1,22.4c-14.2,0-24.5-5.8-24.5-20.9v-35.9l-7-1.9v-4.8H333v4.8l-6.7,1.9v35.9
	c0,9.1,4.1,13,14.2,13c7,0,13.2-4.1,13.2-13.7v-35.1l-7-1.9v-4.8h22.1v4.8l-6.7,1.9V313.7z M552.2,313.7c0,15.9-7.7,22.4-23.1,22.4
	c-14.2,0-24.8-5.8-24.8-20.9v-35.9l-6.7-1.9v-4.8h25.5v4.8l-6.7,1.9v35.9c0,9.1,4.1,13,14.2,13c7,0,13.2-4.1,13.2-13.7v-35.1
	l-6.7-1.9v-4.8h22.1v4.8l-6.7,1.9v34.4H552.2z M620.6,377.7c-3.4,0-6.3-2.9-6.3-6.3c0-3.4,2.9-6.3,6.3-6.3c3.4,0,6.3,2.9,6.3,6.3
	l0,0C626.8,374.8,624,377.7,620.6,377.7z M620.6,366.6c-2.6,0-5.1,2.2-5.1,5.1c0,2.6,2.2,5.1,5.1,5.1c2.6,0,5.1-2.2,5.1-5.1
	C625.6,368.8,623.2,366.6,620.6,366.6L620.6,366.6z M619.9,371.9v2.4h-1.2v-5.8h2.6c1.2,0,1.9,0.7,1.9,1.7c0,0.5-0.2,1.2-1,1.4
	c0.2,0,0.7,0.5,0.7,1.4v0.2c0,0.5,0,0.7,0,1.2h-1.2c0-0.5-0.2-1,0-1.2l0,0c0-0.7-0.2-1-1.2-1L619.9,371.9z M619.9,371h1
	c0.7,0,1-0.2,1-0.7c0-0.5-0.2-0.7-1-0.7h-1V371z"/>
</svg>
